HIERARCHY
ROOT Hips
{
  OFFSET 0 0 0
  CHANNELS 6 Xposition Yposition Zposition Zrotation Yrotation Xrotation
  JOINT LeftThigh
  {
    OFFSET 8.409438 0 -5.917753
    CHANNELS 3 Zrotation Yrotation Xrotation
    JOINT LeftLeg
    {
      OFFSET 0 0 -42.358652
      CHANNELS 3 Zrotation Yrotation Xrotation
      JOINT LeftFoot
      {
        OFFSET 0 0 -39.357303
        CHANNELS 3 Zrotation Yrotation Xrotation
      }
    }
  }
  JOINT RightThigh
  {
    OFFSET -8.409438 0 -5.917753
    CHANNELS 3 Zrotation Yrotation Xrotation
    JOINT RightLeg
    {
      OFFSET 0 0 -42.358652
      CHANNELS 3 Zrotation Yrotation Xrotation
      JOINT RightFoot
      {
        OFFSET 0 0 -39.357303
        CHANNELS 3 Zrotation Yrotation Xrotation
      }
    }
  }
  JOINT SpineLow
  {
    OFFSET 0 0 4.719101
    CHANNELS 3 Zrotation Yrotation Xrotation
    JOINT SpineMid
    {
      OFFSET 0 0 12.899191
      CHANNELS 3 Zrotation Yrotation Xrotation
      JOINT Chest
      {
        OFFSET 0 0 12.899191
        CHANNELS 3 Zrotation Yrotation Xrotation
        JOINT LeftShoulder
        {
          OFFSET 7.550562 1.41573 9.438202
          CHANNELS 3 Zrotation Yrotation Xrotation
          JOINT LeftArm
          {
            OFFSET 9.155056 0 4.247191
            CHANNELS 3 Zrotation Yrotation Xrotation
            JOINT LeftForearm
            {
              OFFSET 0 0 25.771955
              CHANNELS 3 Zrotation Yrotation Xrotation
              JOINT LeftHand
              {
                OFFSET 0 0 25.197169
                CHANNELS 3 Zrotation Yrotation Xrotation
              }
            }
          }
        }
        JOINT RightShoulder
        {
          OFFSET -7.550562 1.41573 9.438202
          CHANNELS 3 Zrotation Yrotation Xrotation
          JOINT RightArm
          {
            OFFSET -9.155056 0 4.247191
            CHANNELS 3 Zrotation Yrotation Xrotation
            JOINT RightForearm
            {
              OFFSET 0 0 -25.771955
              CHANNELS 3 Zrotation Yrotation Xrotation
              JOINT RightHand
              {
                OFFSET 0 0 -25.197169
                CHANNELS 3 Zrotation Yrotation Xrotation
              }
            }
          }
        }
        JOINT Neck
        {
          OFFSET 0 0 15.101124
          CHANNELS 3 Zrotation Yrotation Xrotation
          JOINT Head
          {
            OFFSET 0 0 11.325843
            CHANNELS 3 Zrotation Yrotation Xrotation
            End Site
            {
              OFFSET 0 0 14.157303
            }
          }
        }
      }
    }
  }
}
MOTION
Frames: 16
Frame Time: 0.0
0.0  93.25843  0.0  -111.808609  35.372201  168.267811  51.852126  -39.306172  -63.928608  -12.728467  13.901436  12.086817  -1.257237  -4.206291  -0.10548  2.381884  17.881784  -45.529117  -4.713693  29.464746  67.283249  0.887179  -4.45488  -8.162036  -0.844298  -3.140416  -0.425906  -2.263953  -8.597462  -1.059372  -2.263953  -8.597462  -1.059371  -31.039076  25.397331  3.539285  123.463956  53.139309  -154.326965  -21.82968  0.97213  66.676315  48.792043  -3.254811  3.145876  -2.047954  -10.956858  17.722837  43.953657  45.97658  8.896833  -24.511795  -21.78102  -114.933816  71.878671  9.093903  19.186522  -16.401734  -7.884378  10.661829  -12.148012  -6.206382  7.777575  
0.0  93.25843  0.0  -111.3469  36.063142  168.645801  51.671015  -38.948565  -63.227578  -12.77533  14.077026  12.218004  -1.185227  -4.198083  -0.106312  3.329481  16.846422  -46.308003  -4.095725  30.612257  70.367919  1.502131  -4.147903  -8.283793  -0.908572  -3.137016  -0.436748  -2.439166  -8.589511  -1.080823  -2.439166  -8.589511  -1.080823  -31.174318  25.521394  3.483688  123.497728  53.654086  -154.15034  -21.635651  0.836879  66.347859  49.19623  -3.241988  2.872405  -2.687482  -10.802329  17.910774  44.92492  45.317888  9.142765  -24.19568  -20.107431  -116.131242  72.80725  8.230284  18.349861  -16.232724  -7.802103  10.539107  -12.024742  -6.138252  7.690143  
0.0  93.25843  0.0  -111.577084  36.836468  168.020423  51.040868  -38.695714  -62.19589  -13.371532  14.515149  12.331803  -0.837255  -4.189888  -0.169642  3.876878  15.795668  -46.374692  -3.481166  31.643298  73.262933  1.992904  -3.810392  -8.35457  -1.106544  -3.107083  -0.366727  -2.992484  -8.507502  -0.86376  -2.992484  -8.507502  -0.86376  -31.236772  25.704998  3.411021  123.75354  54.234675  -153.855256  -21.386311  0.744956  66.099945  49.504078  -3.252073  2.655313  -3.082135  -10.57516  18.058892  45.697134  44.671544  9.429687  -23.880906  -18.406342  -117.279075  73.65574  7.452903  17.399519  -15.995239  -7.684022  10.406707  -11.851036  -6.041849  7.597289  
0.0  93.25843  0.0  -111.112294  37.631967  168.394502  50.660049  -38.555077  -61.385116  -12.973072  14.71282  12.592943  -0.809746  -4.170385  -0.189216  4.711341  14.466391  -46.940678  -2.925862  32.715396  75.952968  2.447688  -3.440125  -8.423998  -1.236425  -3.103465  -0.372722  -3.348558  -8.499388  -0.863502  -3.348558  -8.499388  -0.863502  -31.232873  25.934146  3.374133  124.190529  54.858761  -153.489485  -21.133215  0.695292  65.939771  49.731729  -3.358244  2.492252  -3.477747  -10.271467  18.30025  46.613599  44.144845  9.737182  -23.491966  -16.849158  -118.413019  74.4069  6.753523  16.509422  -15.658072  -7.533259  10.279155  -11.603228  -5.919413  7.510083  
0.0  93.25843  0.0  -110.93709  38.46755  168.325586  50.301131  -38.342816  -60.582109  -13.066627  15.122606  12.866323  0.41796  -4.411172  -0.545227  5.202565  12.918829  -47.075106  -2.424013  33.762822  78.234093  2.768361  -2.98521  -8.408208  -1.431847  -3.07926  -0.342541  -3.889416  -8.433644  -0.756603  -3.889416  -8.433644  -0.756603  -31.225874  26.120301  3.315768  124.583461  55.46126  -153.22576  -21.011376  0.69494  65.878557  49.870803  -3.542137  2.395495  -3.39713  -10.145354  18.296591  47.415735  43.611638  10.398842  -22.88211  -15.594806  -119.672431  74.947325  6.154043  15.827518  -15.301497  -7.358332  10.2027  -11.340706  -5.779959  7.4619  
0.0  93.25843  0.0  -110.343171  39.310895  168.831118  50.053256  -38.152148  -59.788263  -12.636386  15.365878  13.121213  0.349026  -4.339622  -0.588487  5.833087  11.067402  -47.367908  -2.021821  34.877705  80.124999  3.022391  -2.543034  -8.269934  -1.582897  -3.067032  -0.348379  -4.303629  -8.402006  -0.75393  -4.303629  -8.402007  -0.75393  -31.24478  26.292593  3.221216  124.73562  56.093174  -153.175725  -21.051755  0.691063  65.88034  49.90009  -3.834413  2.44102  -3.767697  -9.873065  18.390783  48.916998  43.155286  11.213857  -21.874412  -14.743592  -121.005798  75.295957  5.91012  15.410755  -14.860175  -7.252262  10.145249  -11.012935  -5.691312  7.426791  
0.0  93.25843  0.0  -110.230801  40.197922  168.589607  49.314045  -37.991117  -58.58068  -12.724574  15.710319  13.188918  0.448469  -4.270775  -0.607197  5.604647  9.068862  -45.648339  -2.454186  35.576324  79.813273  4.26491  -2.597936  -9.956622  -1.816984  -3.031968  -0.293893  -4.953543  -8.304233  -0.576874  -4.953544  -8.304233  -0.576874  -31.20359  26.467417  3.057865  124.563999  56.693871  -153.333443  -21.186274  0.592272  65.931618  49.885996  -4.194612  2.601439  -4.020226  -9.573344  18.444291  50.48469  42.716187  12.103012  -20.104479  -14.533235  -122.567635  75.884217  5.949058  15.373336  -14.480851  -7.123511  10.17908  -10.731032  -5.588987  7.459871  
0.0  93.25843  0.0  -109.416436  41.097637  169.330629  49.12862  -37.490691  -57.64404  -12.699358  15.82965  13.25577  0.522515  -4.249897  -0.613219  6.151106  6.984715  -45.71876  -2.367859  36.520733  80.951622  4.593096  -1.993625  -9.702021  -1.968754  -3.020807  -0.307946  -5.368589  -8.275798  -0.597077  -5.368589  -8.275798  -0.597077  -31.065568  26.619002  2.919707  124.25011  57.26958  -153.529701  -21.281924  0.382211  66.065617  49.873305  -4.561724  2.789779  -4.10688  -9.270587  18.460026  52.220217  42.200839  13.094759  -18.19823  -14.506791  -124.122184  76.381146  6.161533  15.497883  -14.025209  -7.036805  10.237042  -10.390787  -5.51744  7.510606  
0.0  93.25843  0.0  -108.533821  42.065031  170.061239  48.998116  -36.705883  -56.648831  -13.146076  15.951328  13.279689  0.781333  -4.226764  -0.608525  6.603384  4.848175  -44.646405  -3.073301  37.155433  80.554163  4.95738  -1.380334  -9.479253  -2.116255  -2.997971  -0.322726  -5.771749  -8.215621  -0.620957  -5.771749  -8.215621  -0.620957  -30.914069  26.730334  2.806746  123.887531  57.734355  -153.69905  -21.317837  0.006889  66.282091  49.816978  -4.931718  2.948453  -4.000775  -9.081636  18.507377  54.325124  41.854809  13.953964  -16.973787  -14.550008  -124.895674  76.830939  6.303752  15.513039  -13.674129  -6.896264  10.378335  -10.129105  -5.409115  7.623917  
0.0  93.25843  0.0  -107.309465  43.083353  171.123231  49.015  -35.956366  -55.52002  -13.286607  15.902797  13.269497  0.885857  -4.192163  -0.609313  7.537591  2.902655  -44.434076  -3.646695  37.656528  81.058919  5.237123  -0.744402  -9.209274  -2.225982  -2.980231  -0.344231  -6.07033  -8.169842  -0.667798  -6.07033  -8.169842  -0.667798  -30.824388  26.837585  2.655451  123.651913  58.210827  -153.815997  -21.349275  -0.391564  66.58802  49.759496  -5.291369  3.107716  -4.075691  -8.766794  18.56111  56.76043  41.198294  15.203302  -16.378667  -14.278815  -125.741453  77.244404  6.307911  15.322102  -13.279221  -6.767355  10.484946  -9.834726  -5.307827  7.711239  
0.0  93.25843  0.0  -106.08719  44.182897  172.015945  48.894778  -35.200323  -54.180615  -13.649011  15.952511  13.232162  0.964631  -4.136042  -0.599018  8.519783  1.039618  -43.891151  -4.57018  37.933258  81.219123  5.474419  -0.093627  -8.906177  -2.354123  -2.942669  -0.338443  -6.422743  -8.067608  -0.639552  -6.422743  -8.067607  -0.639552  -30.676167  26.868993  2.523396  123.698656  58.504005  -153.626207  -21.350335  -0.881522  66.928892  49.722083  -5.62652  3.254571  -3.87509  -8.596133  18.505455  59.74831  40.437763  16.554128  -17.152738  -13.729727  -125.715055  77.664498  6.151487  15.006763  -12.88325  -6.608228  10.595907  -9.540141  -5.183807  7.80239  
0.0  93.25843  0.0  -104.367485  45.32329  173.459894  48.909973  -34.492211  -52.769345  -13.592892  15.797688  13.204486  1.021388  -4.11479  -0.601563  9.804469  -0.843661  -43.438718  -5.747892  38.155669  81.188869  5.769228  0.571359  -8.630378  -2.437721  -2.910495  -0.36279  -6.649132  -7.98274  -0.699242  -6.649132  -7.982741  -0.699242  -30.514281  26.887532  2.389846  124.281049  58.8569  -153.132209  -21.358144  -1.129235  67.352514  49.6388  -5.927466  3.334927  -3.937075  -8.286876  18.607471  62.383708  39.659257  17.711499  -17.949133  -12.915082  -125.771297  78.165035  5.858164  14.798143  -12.453971  -6.425749  10.713208  -9.221022  -5.041663  7.898957  
0.0  93.25843  0.0  -103.837825  46.723921  173.068234  47.40641  -34.280596  -50.213354  -13.596008  15.689411  13.065007  0.877908  -4.012861  -0.420179  10.019731  -2.650919  -41.736753  -7.084189  38.251239  80.78138  6.12331  1.230898  -8.300951  -2.674866  -2.786767  -0.266171  -7.310651  -7.636038  -0.419111  -7.310651  -7.636038  -0.419111  -30.40313  26.856649  2.296614  125.221622  58.955359  -152.275383  -21.572523  -1.154054  67.725205  49.927834  -6.195312  3.470802  -3.944646  -8.066286  18.776671  64.651403  38.913323  18.58929  -18.736927  -11.878096  -125.823226  78.790955  5.443176  14.936473  -11.930394  -6.253435  10.860114  -8.830734  -4.905875  8.018136  
0.0  93.25843  0.0  -101.652225  48.012856  174.948765  47.28866  -33.587351  -48.49205  -13.434705  15.485752  12.91939  1.04911  -3.940445  -0.37002  11.088307  -4.587517  -40.87917  -8.559172  38.229233  80.025121  6.525679  1.883295  -7.915874  -2.710858  -2.715063  -0.309352  -7.4038  -7.445254  -0.541304  -7.403801  -7.445255  -0.541303  -30.343641  26.735756  2.289668  126.526297  59.2082  -151.297224  -21.723047  -1.178055  68.222152  49.783704  -6.49114  3.542047  -4.197369  -7.863083  18.959676  66.67999  38.234775  19.288832  -19.133768  -11.006079  -125.816334  79.467287  5.257434  15.179919  -11.530592  -6.052008  11.022906  -8.533707  -4.75058  8.148395  
0.0  93.25843  0.0  -100.740853  49.602702  174.903942  45.647167  -33.266904  -45.648321  -13.204474  15.251817  12.718251  0.893359  -3.864048  -0.177872  10.904599  -6.320055  -38.687754  -10.235647  38.060388  78.96634  6.946195  2.523241  -7.529092  -2.899327  -2.550981  -0.226962  -7.928223  -6.988507  -0.313941  -7.928224  -6.988508  -0.313941  -30.359618  26.52557  2.221616  127.945888  59.133231  -150.133535  -21.935937  -1.398066  68.665846  49.611344  -6.742334  3.707013  -4.526749  -7.729174  19.095136  68.650366  37.662634  19.988936  -19.039689  -10.427067  -125.959826  80.09553  5.222533  15.549287  -11.222509  -5.759641  11.241038  -8.306898  -4.529574  8.320954  
0.0  93.25843  0.0  -98.021971  51.014119  177.270728  45.300284  -32.501228  -43.568563  -12.96029  14.94477  12.432996  1.104871  -3.877592  -0.135967  11.655126  -8.036344  -37.318199  -12.096445  37.757621  77.683895  7.294763  3.155236  -7.118611  -2.88706  -2.452488  -0.276797  -7.888367  -6.725644  -0.463492  -7.888366  -6.725644  -0.463492  -30.383917  26.288664  2.198511  129.525322  59.16087  -148.981207  -22.199096  -1.422601  69.264492  49.402696  -6.967171  3.794508  -4.922111  -7.650808  19.09352  70.68827  36.956886  20.781694  -18.52655  -10.132746  -126.16053  80.577854  5.451672  15.916759  -10.918652  -5.539138  11.382094  -8.082514  -4.360968  8.43391  
